<svg height="397pt" viewBox="-44 0 512 512.001" width="331pt" xmlns="http://www.w3.org/2000/svg"><path d="m258.394531 410.042969c-9.640625 0-82.515625 0-92.445312 0-7.039063 0-12.800781 5.761719-12.800781 12.800781v12.371094c0 7.039062 5.761718 12.800781 12.800781 12.800781h92.445312c7.039063 0 12.796875-5.761719 12.796875-12.800781v-12.371094c0-7.039062-5.757812-12.800781-12.796875-12.800781zm0 0" fill="#554e56"/><path d="m258.394531 425.007812h-92.445312c-5.144531 0-9.589844-3.082031-11.621094-7.480468-.75 1.621094-1.179687 3.417968-1.179687 5.316406v12.371094c0 7.042968 5.761718 12.800781 12.800781 12.800781h92.445312c7.039063 0 12.796875-5.757813 12.796875-12.800781v-12.371094c0-1.894531-.429687-3.695312-1.175781-5.316406-2.03125 4.398437-6.480469 7.480468-11.621094 7.480468zm0 0" fill="#433f43"/><path d="m423.515625 374.464844-3.386719-10.445313c-17.726562-54.660156-56.074218-100.527343-107.121094-128.132812l-5.878906-3.179688v159.449219c0 .625-.035156 1.242188-.097656 1.851562h102c10.296875 0 17.617188-9.875 14.484375-19.542968zm0 0" fill="#ff646f"/><path d="m338.199219 251.738281c-7.996094-5.789062-16.398438-11.097656-25.191407-15.851562l-5.878906-3.179688v159.449219c0 .625-.035156 1.242188-.09375 1.851562h31.164063zm0 0" fill="#ff4755"/><path d="m117.886719 392.15625v-159.449219l-5.917969 3.179688c-51.382812 27.605469-89.980469 73.472656-107.820312 128.132812l-3.410157 10.445313c-3.15625 9.667968 4.210938 19.542968 14.578125 19.542968h102.664063c-.058594-.609374-.09375-1.226562-.09375-1.851562zm0 0" fill="#ff646f"/><path d="m31.773438 374.464844 3.410156-10.445313c14.800781-45.339843 43.890625-84.617187 82.703125-112.453125v-18.859375l-5.917969 3.179688c-51.382812 27.605469-89.980469 73.472656-107.820312 128.132812l-3.410157 10.445313c-3.15625 9.667968 4.210938 19.542968 14.578125 19.542968h31.035156c-10.363281 0-17.734374-9.875-14.578124-19.542968zm0 0" fill="#ff4755"/><path d="m284.050781 483.003906v-20.429687c0-8.574219-7.015625-15.589844-15.589843-15.589844h-112.582032c-8.570312 0-15.585937 7.015625-15.585937 15.589844v20.429687zm0 0" fill="#22a7ff"/><path d="m140.523438 459.992188c-.140626.84375-.230469 1.699218-.230469 2.582031v20.429687h143.757812v-20.429687c0-.878907-.09375-1.738281-.234375-2.582031zm0 0" fill="#0094fd"/><path d="m299.558594 88.261719-52-69.585938c-8.390625-11.226562-21.386719-18.085937-35.386719-18.675781-14.003906.589844-26.996094 7.449219-35.386719 18.675781l-52 69.585938c-6.023437 8.058593-9.277344 17.847656-9.277344 27.910156v237.976563h193.328126v-237.976563c0-10.0625-3.257813-19.851563-9.277344-27.910156zm0 0" fill="#d9edff"/><path d="m155.820312 88.261719 52-69.585938c5.160157-6.90625 12.0625-12.148437 19.867188-15.304687-4.886719-1.976563-10.125-3.144532-15.515625-3.371094-14.003906.589844-26.996094 7.445312-35.386719 18.671875l-52 69.589844c-6.023437 8.058593-9.277344 17.847656-9.277344 27.910156v237.976563h31.035157v-237.976563c0-10.0625 3.253906-19.851563 9.277343-27.910156zm0 0" fill="#b4dbff"/><path d="m227.699219 353.117188v57.957031h62.214843c10.449219 0 18.917969-8.46875 18.917969-18.917969v-39.035156h-81.132812zm0 0" fill="#685e68"/><path d="m134.425781 411.074219h62.214844v-57.957031h-81.132813v39.039062c0 10.449219 8.46875 18.917969 18.917969 18.917969zm0 0" fill="#685e68"/><path d="m146.542969 392.15625v-39.039062h-31.035157v39.039062c0 10.449219 8.46875 18.917969 18.917969 18.917969h31.035157c-10.449219 0-18.917969-8.46875-18.917969-18.917969zm0 0" fill="#554e56"/><path d="m256.96875 143.820312c0 25.371094-20.570312 45.941407-45.941406 45.941407s-45.941406-20.570313-45.941406-45.941407c0-25.371093 20.570312-45.941406 45.941406-45.941406s45.941406 20.570313 45.941406 45.941406zm0 0" fill="#60b8ff"/><path d="m196.121094 143.820312c0-19.925781 12.6875-36.882812 30.425781-43.246093-4.851563-1.738281-10.074219-2.695313-15.519531-2.695313-25.371094 0-45.941406 20.570313-45.941406 45.941406 0 25.371094 20.570312 45.941407 45.941406 45.941407 5.445312 0 10.667968-.957031 15.519531-2.695313-17.738281-6.363281-30.425781-23.320312-30.425781-43.246094zm0 0" fill="#22a7ff"/><path d="m195.609375 244.464844v169.8125c0 6.464844 5.292969 11.757812 11.757813 11.757812h9.605468c6.464844 0 11.757813-5.292968 11.757813-11.757812v-169.8125c0-6.464844-5.292969-11.757813-11.757813-11.757813h-9.605468c-6.464844 0-11.757813 5.289063-11.757813 11.757813zm0 0" fill="#ff646f"/><path d="m218.40625 414.277344v-169.8125c0-4.027344 2.050781-7.597656 5.160156-9.71875-1.882812-1.285156-4.152344-2.039063-6.59375-2.039063h-9.601562c-6.46875 0-11.757813 5.289063-11.757813 11.757813v169.8125c0 6.464844 5.289063 11.757812 11.757813 11.757812h9.601562c2.441406 0 4.710938-.757812 6.59375-2.042968-3.109375-2.121094-5.160156-5.6875-5.160156-9.714844zm0 0" fill="#ff4755"/><path d="m297.074219 480.941406h-169.808594c-6.464844 0-11.757813 5.289063-11.757813 11.757813v7.542969c0 6.46875 5.292969 11.757812 11.757813 11.757812h169.808594c6.46875 0 11.761719-5.289062 11.761719-11.757812v-7.542969c0-6.464844-5.292969-11.757813-11.761719-11.757813zm0 0" fill="#60b8ff"/><path d="m297.074219 491.054688h-169.808594c-3.980469 0-7.507813-2.007813-9.636719-5.058594-1.332031 1.90625-2.121094 4.214844-2.121094 6.703125v7.542969c0 6.46875 5.292969 11.757812 11.757813 11.757812h169.8125c6.464844 0 11.757813-5.289062 11.757813-11.757812v-7.542969c0-2.488281-.789063-4.796875-2.121094-6.703125-2.128906 3.050781-5.660156 5.058594-9.640625 5.058594zm0 0" fill="#22a7ff"/></svg>