<?xml version="1.0" encoding="iso-8859-1"?>
<!-- Generator: Adobe Illustrator 19.0.0, SVG Export Plug-In . SVG Version: 6.00 Build 0)  -->
<svg version="1.1" id="Layer_1" xmlns="http://www.w3.org/2000/svg" xmlns:xlink="http://www.w3.org/1999/xlink" x="0px" y="0px"
	 viewBox="0 0 512.001 512.001" style="enable-background:new 0 0 512.001 512.001;" xml:space="preserve">
<path style="fill:#6B00B9;" d="M330.954,425.362H181.05c-6.437,0-12.058-4.353-13.667-10.585
	c-1.564-6.056-3.598-13.726-5.944-22.582c-21.23-80.104-43.876-168.869-43.841-208.327c0.068-73.997,82.788-148.352,118.348-176.887
	c11.64-9.339,28.511-9.305,40.117,0.086c11.342,9.178,28.623,24,46.543,42.493c5.425,5.598,5.285,14.535-0.315,19.96
	c-5.598,5.425-14.535,5.284-19.96-0.315c-16.936-17.478-33.289-31.504-44.026-40.191c-1.379-1.117-3.307-1.121-4.691-0.013
	c-25.27,20.277-107.726,91.372-107.785,154.893c-0.037,39.07,28.963,148.486,42.898,201.067c1.155,4.358,2.235,8.431,3.22,12.169
	h128.076c1.245-4.774,2.635-10.063,4.139-15.781c14.503-55.165,41.499-157.844,42.006-195.881
	c0.261-19.512-7.558-41.78-23.235-66.185c-4.214-6.558-2.312-15.292,4.247-19.505c6.558-4.212,15.292-2.312,19.505,4.247
	c18.723,29.146,28.047,56.675,27.711,81.819c-0.553,41.495-27.081,142.396-42.932,202.683c-2.717,10.337-5.065,19.262-6.833,26.205
	C343.039,420.986,337.408,425.362,330.954,425.362z"/>
<path style="fill:#6B00B9;" d="M147.988,281.384l-45.495,66.714c-3.089,4.53-3.93,10.224-2.283,15.454l24.632,78.173
	c4.516,14.333,23.623,17.046,31.951,4.537l23.99-36.039C174.09,384.395,159.524,331.348,147.988,281.384z"/>
<path style="fill:#6B00B9;" d="M141.971,468.357L141.971,468.357c-14.078,0-26.371-8.999-30.59-22.39l-24.632-78.173
	c-2.967-9.414-1.478-19.493,4.084-27.647l45.495-66.716c3.159-4.633,8.762-6.958,14.27-5.919c5.511,1.035,9.885,5.234,11.146,10.697
	c8.842,38.3,19.325,77.854,26.98,106.735c2.235,8.434,4.188,15.801,5.727,21.737c1.008,3.887,0.312,8.021-1.914,11.365
	l-23.991,36.039C162.594,463.022,152.66,468.357,141.971,468.357z M141.68,315.688l-27.524,40.363
	c-0.655,0.961-0.831,2.148-0.481,3.259l24.632,78.173c0.752,2.386,2.813,2.644,3.664,2.644c1.949,0,2.795-1.269,3.073-1.687
	l20.485-30.771c-1.208-4.599-2.587-9.801-4.095-15.492C155.793,370.895,148.625,343.852,141.68,315.688z"/>
<path style="fill:#6B00B9;" d="M409.51,348.098l-45.586-66.848c-11.479,49.562-25.935,102.495-32.706,128.969l23.993,36.042
	c8.327,12.509,27.434,9.796,31.951-4.537l24.632-78.173C413.44,358.322,412.599,352.628,409.51,348.098z"/>
<g>
	<path style="fill:#6B00B9;" d="M370.035,468.357c-0.001,0-0.001,0-0.003,0c-10.69,0-20.623-5.337-26.573-14.274l-23.993-36.042
		c-2.216-3.33-2.916-7.445-1.925-11.321c1.756-6.866,4.027-15.503,6.627-25.399c7.401-28.151,17.536-66.706,26.001-103.259
		c1.265-5.46,5.641-9.655,11.149-10.689c5.509-1.03,11.108,1.29,14.264,5.92l45.586,66.848c5.562,8.158,7.051,18.233,4.085,27.649
		l-24.632,78.175C396.405,459.36,384.11,468.357,370.035,468.357z M346.459,407.642l20.5,30.796
		c0.278,0.416,1.122,1.685,3.074,1.687l0,0c0.851,0,2.911-0.258,3.663-2.644l24.632-78.173c0.35-1.109,0.174-2.297-0.483-3.259
		l-27.626-40.511c-6.584,26.689-13.38,52.546-18.747,72.962C349.608,395.597,347.914,402.043,346.459,407.642z"/>
	<path style="fill:#6B00B9;" d="M256.661,262.221l-0.542-0.001c-19.961-0.143-38.672-8.05-52.684-22.265
		c-14.013-14.215-21.652-33.037-21.51-52.996c0.294-40.912,33.812-74.197,74.719-74.197l0.543,0.001
		c19.961,0.143,38.672,8.05,52.684,22.265c14.013,14.215,21.652,33.037,21.51,52.996C331.09,228.936,297.57,262.221,256.661,262.221
		z M256.645,140.992c-25.452,0-46.307,20.711-46.489,46.167c-0.089,12.421,4.665,24.131,13.385,32.976
		c8.719,8.845,20.361,13.764,32.781,13.853h0.34c25.452,0,46.308-20.711,46.489-46.167c0.089-12.421-4.664-24.131-13.383-32.976
		s-20.361-13.764-32.781-13.853H256.645z"/>
</g>
<path style="fill:#6B00B9;" d="M163.415,343.856c7.2,27.956,13.855,52.521,17.697,67.39h149.906
	c3.869-15.184,10.453-39.68,17.57-67.39L163.415,343.856L163.415,343.856z"/>
<g>
	<path style="fill:#6B00B9;" d="M331.018,425.362H181.112c-6.437,0-12.058-4.353-13.667-10.585
		c-1.564-6.056-3.597-13.726-5.944-22.582c-3.336-12.584-7.486-28.244-11.756-44.819c-1.088-4.226-0.161-8.718,2.513-12.168
		c2.674-3.45,6.793-5.468,11.157-5.468h185.173c4.363,0,8.481,2.017,11.154,5.464c2.674,3.447,3.604,7.937,2.518,12.164
		c-3.848,14.978-7.5,28.875-10.724,41.138c-2.72,10.347-5.069,19.282-6.839,26.229C343.102,420.986,337.472,425.362,331.018,425.362
		z M192.01,397.13h128.076c1.248-4.781,2.64-10.077,4.146-15.805c1.907-7.251,3.964-15.077,6.121-23.355H181.668
		c2.582,9.856,5.015,19.041,7.123,26.992C189.944,389.32,191.024,393.394,192.01,397.13z"/>
	<path style="fill:#6B00B9;" d="M256.002,512.001c-12.47,0-23.637-6.447-29.872-17.247l-44.139-76.45
		c-3.899-6.752-1.585-15.385,5.166-19.282c6.75-3.899,15.385-1.585,19.282,5.166l44.139,76.45c1.572,2.724,4.072,3.131,5.422,3.131
		s3.849-0.407,5.422-3.131l11.538-19.985c3.897-6.752,12.529-9.064,19.282-5.166c6.752,3.897,9.065,12.531,5.166,19.282
		l-11.538,19.985C279.638,505.553,268.472,512.001,256.002,512.001z"/>
</g>
<g>
</g>
<g>
</g>
<g>
</g>
<g>
</g>
<g>
</g>
<g>
</g>
<g>
</g>
<g>
</g>
<g>
</g>
<g>
</g>
<g>
</g>
<g>
</g>
<g>
</g>
<g>
</g>
<g>
</g>
</svg>
