<?xml version="1.0" encoding="UTF-8"?>
<svg id="svg7" width="50" height="50" version="1.1"
 viewBox="-3 -119 374 412" xmlns="http://www.w3.org/2000/svg">
 <g id="kopimi" fill="#322" stroke="#f12" stroke-linejoin="round" stroke-width="6">
  <path d="m0 0 41 29 41-29-41-29zm41 29 41 29 41-29-41-29zm41 29 41 29 41-29-41-29zm41 29 41 29 41-29-41-29zm41 29 41 29 41-29-41-29zm-41-87 41 29 41-29-41-29zm82 0 41 29 41-29-41-29zm82 0 41 29 41-29-41-29zm-164-58 41 29 41-29-41-29zm0-58 41 29 41-29-41-29z"/>
  <path d="m0 0v145l205 145v-145zm205 290 41-29v-145l-41 29m-82-174 41-29-41-29zm0 58 41-29-41-29zm41-29 41 29v-58zm0-58 41 29v-58zm0 116 82 58v87l41-29 41 29 41-29v-145l-41 29-41-29-41 29-41-29z" fill="#000"/>
 </g>
</svg>